<?xml version="1.0" encoding="UTF-8" standalone="no"?>
<svg
   xmlns:dc="http://purl.org/dc/elements/1.1/"
   xmlns:cc="http://creativecommons.org/ns#"
   xmlns:rdf="http://www.w3.org/1999/02/22-rdf-syntax-ns#"
   xmlns:svg="http://www.w3.org/2000/svg"
   xmlns="http://www.w3.org/2000/svg"
   xmlns:sodipodi="http://sodipodi.sourceforge.net/DTD/sodipodi-0.dtd"
   xmlns:inkscape="http://www.inkscape.org/namespaces/inkscape"
   inkscape:version="1.0 (4035a4fb49, 2020-05-01)"
   sodipodi:docname="gmail.svg"
   version="1.1"
   width="512"
   viewBox="0 0 512 512"
   height="512"
   enable-background="new 0 0 512 512"
   id="Capa_1">
  <metadata
     id="metadata139">
    <rdf:RDF>
      <cc:Work
         rdf:about="">
        <dc:format>image/svg+xml</dc:format>
        <dc:type
           rdf:resource="http://purl.org/dc/dcmitype/StillImage" />
      </cc:Work>
    </rdf:RDF>
  </metadata>
  <defs
     id="defs137" />
  <sodipodi:namedview
     inkscape:current-layer="Capa_1"
     inkscape:window-maximized="1"
     inkscape:window-y="-8"
     inkscape:window-x="-8"
     inkscape:cy="256"
     inkscape:cx="256"
     inkscape:zoom="1.6445312"
     showgrid="false"
     id="namedview135"
     inkscape:window-height="1009"
     inkscape:window-width="1920"
     inkscape:pageshadow="2"
     inkscape:pageopacity="0"
     guidetolerance="10"
     gridtolerance="10"
     objecttolerance="10"
     borderopacity="1"
     bordercolor="#666666"
     pagecolor="#ffffff" />
  <g
     id="g132">
    <g
       id="g124">
      <path
         id="path118"
         d="m256 345.944c-3.157 0-6.314-.994-8.976-2.982l-157.024-117.279v225.317h332v-225.317l-157.024 117.28c-2.662 1.987-5.819 2.981-8.976 2.981z" />
      <path
         id="path120"
         d="m60 203.276-60-44.813v247.537c0 24.813 20.187 45 45 45h15z" />
      <path
         id="path122"
         d="m452 203.276v247.724h15c24.813 0 45-20.187 45-45v-247.537z" />
    </g>
    <g
       id="g130">
      <path
         id="path126"
         d="m442.02 61h-372.041l186.021 138.785z" />
      <path
         id="path128"
         d="m486.33 65.371-221.36 165.152c-2.661 1.985-5.815 2.977-8.97 2.977s-6.309-.992-8.97-2.977l-221.36-165.152c-15.166 7.245-25.67 22.732-25.67 40.629v16.843c2.118.424 4.179 1.296 6.024 2.675l249.976 186.704 249.976-186.704c1.845-1.378 3.906-2.251 6.024-2.675v-16.843c0-17.897-10.504-33.385-25.67-40.629z" />
    </g>
  </g>
  <path
     id="path141"
     d="M 163.4423,130.26331 71.188638,61.415677 163.59432,61.261709 c 50.82313,-0.08468 134.0006,-0.08468 184.83883,0 l 92.43316,0.153968 -92.08813,68.698923 c -50.64847,37.78441 -92.3118,68.76585 -92.58517,68.84763 -0.27338,0.0818 -42.01119,-30.83272 -92.75071,-68.69892 z"
     style="fill:#ffffff;stroke-width:0.608076" />
  <path
     id="path143"
     d="M 130.73634,218.18037 C 59.294407,164.77952 4.5019301,124.22979 2.8001823,123.49991 l -2.97653979,-1.27663 0.36728782,-11.24941 C 0.62136727,97.790314 1.6583867,92.837316 5.5572924,85.343126 8.7485476,79.20913 15.899401,71.473363 21.358686,68.249235 c 2.130408,-1.258171 4.16422,-2.176011 4.519583,-2.039646 0.355362,0.136365 50.384946,37.358381 111.176861,82.715601 60.7919,45.35721 111.39779,82.93223 112.45752,83.50004 2.3807,1.2756 9.60516,1.42831 12.36934,0.26146 1.69593,-0.71591 50.27211,-36.79792 182.4768,-135.542366 20.48855,-15.303013 38.31809,-28.606884 39.62122,-29.564158 l 2.36931,-1.7405 3.24814,1.735641 c 1.78648,0.954603 5.72182,4.200536 8.74519,7.213184 4.22788,4.212881 6.09252,6.630632 8.07618,10.471842 3.94684,7.642796 4.96438,12.522185 5.36224,25.713537 l 0.33929,11.24941 -3.69844,1.82423 c -2.0731,1.02254 -58.22408,42.57653 -127.77115,94.55582 -68.23998,51.00237 -124.27118,92.78767 -124.51375,92.85622 -0.24258,0.0685 -56.67289,-41.90709 -125.40068,-93.27918 z"
     style="fill:#ffffff;stroke-width:0.608076" />
  <path
     id="path145"
     d="m 90.603325,339.00238 c 0,-61.5373 0.163682,-111.88599 0.363738,-111.88599 0.200056,0 35.347377,26.13264 78.105167,58.07253 42.75778,31.93989 78.78222,58.68763 80.05431,59.43943 3.36633,1.98948 10.44036,1.95385 13.86633,-0.0698 1.33777,-0.7902 37.37726,-27.53794 80.08775,-59.43943 42.71049,-31.90148 77.80408,-58.00269 77.98575,-58.00269 0.18167,0 0.3303,50.34869 0.3303,111.88599 V 450.88836 H 256 90.603325 Z"
     style="fill:#ffffff;stroke-width:0.608076" />
  <path
     id="path147"
     d="M 38.634552,450.21172 C 29.135929,448.82799 21.054264,444.62793 13.657348,437.23101 7.441439,431.01511 3.9739729,425.17153 1.6588541,417.01045 L 0.31566199,412.27553 0.1412937,285.55552 C -9.5346318e-5,182.80276 0.11381407,158.9533 0.74355772,159.45829 1.1707055,159.80081 14.586223,169.83203 30.555819,181.74989 l 29.03563,21.66882 v 123.73482 123.73483 l -8.665083,-0.0741 c -4.765796,-0.0408 -10.297113,-0.3119 -12.291814,-0.60249 z"
     style="fill:#ffffff;stroke-width:0.608076" />
  <path
     id="path149"
     d="M 452.40855,327.27377 V 203.49538 l 22.95487,-17.18337 c 12.62518,-9.45085 26.04068,-19.46931 29.81224,-22.26323 l 6.85736,-5.07987 -0.17434,126.65331 -0.17434,126.65331 -1.34319,4.73492 c -2.30843,8.13749 -5.78372,14.0022 -11.9985,20.24801 -4.65221,4.67543 -6.38487,5.95989 -11.27377,8.35747 -8.30247,4.07163 -11.3511,4.72389 -23.86698,5.10638 l -10.79335,0.32986 z"
     style="fill:#ffffff;stroke-width:0.608076" />
</svg>
