<?xml version="1.0" encoding="UTF-8" standalone="no"?>
<svg
   xmlns:dc="http://purl.org/dc/elements/1.1/"
   xmlns:cc="http://creativecommons.org/ns#"
   xmlns:rdf="http://www.w3.org/1999/02/22-rdf-syntax-ns#"
   xmlns:svg="http://www.w3.org/2000/svg"
   xmlns="http://www.w3.org/2000/svg"
   xmlns:sodipodi="http://sodipodi.sourceforge.net/DTD/sodipodi-0.dtd"
   xmlns:inkscape="http://www.inkscape.org/namespaces/inkscape"
   inkscape:version="1.0 (4035a4fb49, 2020-05-01)"
   sodipodi:docname="instagram.svg"
   id="svg61"
   version="1.1"
   viewBox="0 0 512.00096 512.00096">
  <metadata
     id="metadata67">
    <rdf:RDF>
      <cc:Work
         rdf:about="">
        <dc:format>image/svg+xml</dc:format>
        <dc:type
           rdf:resource="http://purl.org/dc/dcmitype/StillImage" />
      </cc:Work>
    </rdf:RDF>
  </metadata>
  <defs
     id="defs65" />
  <sodipodi:namedview
     inkscape:current-layer="svg61"
     inkscape:window-maximized="1"
     inkscape:window-y="-8"
     inkscape:window-x="-8"
     inkscape:cy="256.00049"
     inkscape:cx="256.00049"
     inkscape:zoom="1.6445281"
     showgrid="false"
     id="namedview63"
     inkscape:window-height="1009"
     inkscape:window-width="1920"
     inkscape:pageshadow="2"
     inkscape:pageopacity="0"
     guidetolerance="10"
     gridtolerance="10"
     objecttolerance="10"
     borderopacity="1"
     bordercolor="#666666"
     pagecolor="#ffffff" />
  <path
     id="path55"
     d="m373.40625 0h-234.8125c-76.421875 0-138.59375 62.171875-138.59375 138.59375v234.816406c0 76.417969 62.171875 138.589844 138.59375 138.589844h234.816406c76.417969 0 138.589844-62.171875 138.589844-138.589844v-234.816406c0-76.421875-62.171875-138.59375-138.59375-138.59375zm108.578125 373.410156c0 59.867188-48.707031 108.574219-108.578125 108.574219h-234.8125c-59.871094 0-108.578125-48.707031-108.578125-108.574219v-234.816406c0-59.871094 48.707031-108.578125 108.578125-108.578125h234.816406c59.867188 0 108.574219 48.707031 108.574219 108.578125zm0 0" />
  <path
     id="path57"
     d="m256 116.003906c-77.195312 0-139.996094 62.800782-139.996094 139.996094s62.800782 139.996094 139.996094 139.996094 139.996094-62.800782 139.996094-139.996094-62.800782-139.996094-139.996094-139.996094zm0 249.976563c-60.640625 0-109.980469-49.335938-109.980469-109.980469 0-60.640625 49.339844-109.980469 109.980469-109.980469 60.644531 0 109.980469 49.339844 109.980469 109.980469 0 60.644531-49.335938 109.980469-109.980469 109.980469zm0 0" />
  <path
     id="path59"
     d="m399.34375 66.285156c-22.8125 0-41.367188 18.558594-41.367188 41.367188 0 22.8125 18.554688 41.371094 41.367188 41.371094s41.371094-18.558594 41.371094-41.371094-18.558594-41.367188-41.371094-41.367188zm0 52.71875c-6.257812 0-11.351562-5.09375-11.351562-11.351562 0-6.261719 5.09375-11.351563 11.351562-11.351563 6.261719 0 11.355469 5.089844 11.355469 11.351563 0 6.257812-5.09375 11.351562-11.355469 11.351562zm0 0" />
  <path
     id="path69"
     d="M 124.95986,511.01502 C 105.9352,509.21584 84.228046,501.92033 67.079607,491.56218 54.706855,484.08869 40.558446,471.73044 31.346488,460.35028 15.060877,440.23154 4.9776565,416.72655 1.4061623,390.55637 0.37146528,382.97461 0.30403858,374.74263 0.30403858,256.00049 c 0,-118.74214 0.0674267,-126.97412 1.10212372,-134.55588 C 5.7841079,89.365149 19.688339,61.755509 42.684484,39.478227 54.064038,28.4544 63.607797,21.722131 77.936491,14.611081 92.474734,7.3960347 109.50324,2.5247506 125.78438,0.92340653 134.63752,0.0526491 377.50523,0.07731842 386.47945,0.94988665 413.25139,3.5529373 441.02736,15.124138 461.49836,32.202033 c 2.52603,2.10734 7.60325,6.943 11.28269,10.745911 20.94228,21.645029 33.65724,48.039701 37.81377,78.496666 1.03469,7.58176 1.10212,15.81374 1.10212,134.55588 0,118.74214 -0.0674,126.97412 -1.10212,134.55588 -3.355,24.58374 -12.1015,46.0464 -26.81722,65.80555 -5.21379,7.00068 -16.52411,18.7892 -23.15914,24.13829 -21.37913,17.23562 -48.01913,28.12857 -74.7935,30.58263 -8.23824,0.75509 -252.83596,0.69151 -260.8651,-0.0678 z m 255.96292,-29.11663 c 14.56942,-1.06551 27.58169,-4.52169 40.17066,-10.6697 12.02521,-5.87269 21.20139,-12.64884 31.11379,-22.97599 12.83085,-13.36771 21.67874,-29.10136 26.29312,-46.75545 3.60316,-13.78525 3.40081,-5.12811 3.40081,-145.49676 0,-140.36865 0.20235,-131.71151 -3.40081,-145.49676 -4.66893,-17.862808 -13.46254,-33.401758 -26.69901,-47.179163 -19.15787,-19.940778 -42.78296,-31.065989 -70.53695,-33.21632 -10.56083,-0.818234 -239.75509,-0.809116 -250.49251,0.01 -22.85357,1.743338 -43.534028,9.920985 -60.944858,24.09935 -6.039265,4.918022 -15.470713,15.001679 -20.120881,21.512283 -7.75922,10.863529 -14.767081,26.75248 -17.483488,39.64038 -2.47183,11.72752 -2.505795,13.90178 -2.268001,145.19084 0.249445,137.72184 -0.005,127.42484 3.485614,141.0739 6.31988,24.71232 23.099789,47.8423 45.617245,62.88029 14.440289,9.64377 33.375329,16.08583 51.008919,17.35423 9.54354,0.68647 241.49951,0.71319 250.85635,0.0289 z"
     style="fill:#ffffff;stroke-width:0.608077" />
  <path
     id="path71"
     d="m 240.81909,394.85518 c -28.15077,-2.9387 -57.89875,-16.45104 -78.6774,-35.73741 -37.72206,-35.01293 -53.26935,-84.33118 -42.28345,-134.12922 6.89075,-31.23514 26.51561,-61.23547 52.92688,-80.90881 42.06845,-31.33613 97.86387,-36.44764 144.68898,-13.25521 33.88588,16.78365 59.15927,45.79607 71.10519,81.62476 4.91944,14.75459 6.84377,27.00027 6.84377,43.5512 0,25.89344 -6.38443,49.3361 -19.31894,70.93616 -22.68266,37.87908 -60.77167,62.63825 -104.17137,67.71499 -8.32308,0.9736 -22.82802,1.06849 -31.11366,0.20354 z m 34.03179,-30.26454 c 22.77661,-3.97318 42.91638,-14.47345 59.15481,-30.8415 21.05651,-21.22461 32.08283,-48.03602 32.04563,-77.92158 -0.0373,-29.94347 -11.16485,-56.77131 -32.29994,-77.873 -16.47454,-16.44852 -37.24056,-27.04632 -60.50903,-30.88038 -9.00592,-1.48395 -25.4778,-1.48395 -34.48373,0 -34.63552,5.70707 -64.00137,26.78849 -80.32344,57.66332 -12.6284,23.88788 -15.9128,52.30287 -9.14159,79.0885 7.26706,28.74712 27.43255,54.42339 54.44417,69.32255 10.08584,5.56318 25.41664,10.54509 36.75676,11.94449 3.00998,0.37144 6.2936,0.78884 7.29693,0.92755 4.20118,0.58082 20.45705,-0.27822 27.05943,-1.42995 z"
     style="fill:#ffffff;stroke-width:0.608077" />
  <path
     id="path73"
     d="m 389.91299,147.53869 c -14.47582,-3.68838 -25.63088,-14.3411 -30.01109,-28.6596 -1.07479,-3.5134 -1.39606,-6.02664 -1.39915,-10.94539 -0.007,-11.373418 3.40004,-19.9188 11.24348,-28.199167 7.72724,-8.157697 16.60048,-12.317766 27.6322,-12.954885 7.21058,-0.416436 13.04191,0.834457 20.06655,4.304527 9.7808,4.831578 17.24233,13.337215 20.80901,23.720861 1.50879,4.392525 1.68984,5.766574 1.68984,12.824624 0,7.10945 -0.1749,8.41463 -1.73788,12.96888 -4.22417,12.30849 -13.8753,21.80587 -26.47911,26.05728 -6.27853,2.11782 -15.50193,2.49112 -21.81385,0.88287 z m 12.76723,-28.68636 c 3.02487,-0.84009 5.87473,-3.33393 7.23697,-6.3329 5.12967,-11.29294 -8.75822,-21.749768 -18.0505,-13.591037 -2.96826,2.606167 -3.91346,4.717167 -3.91346,8.740297 0,5.55654 3.01971,9.60213 8.36961,11.213 2.32941,0.7014 3.74978,0.69484 6.35738,-0.0294 z"
     style="fill:#ffffff;stroke-width:0.608077" />
</svg>
