<?xml version="1.0" encoding="UTF-8" standalone="no"?>
<svg
   xmlns:dc="http://purl.org/dc/elements/1.1/"
   xmlns:cc="http://creativecommons.org/ns#"
   xmlns:rdf="http://www.w3.org/1999/02/22-rdf-syntax-ns#"
   xmlns:svg="http://www.w3.org/2000/svg"
   xmlns="http://www.w3.org/2000/svg"
   xmlns:sodipodi="http://sodipodi.sourceforge.net/DTD/sodipodi-0.dtd"
   xmlns:inkscape="http://www.inkscape.org/namespaces/inkscape"
   inkscape:version="1.0 (4035a4fb49, 2020-05-01)"
   sodipodi:docname="Telegram.svg"
   version="1.1"
   width="512"
   viewBox="0 0 24 24"
   height="512"
   enable-background="new 0 0 24 24"
   id="Bold">
  <metadata
     id="metadata91">
    <rdf:RDF>
      <cc:Work
         rdf:about="">
        <dc:format>image/svg+xml</dc:format>
        <dc:type
           rdf:resource="http://purl.org/dc/dcmitype/StillImage" />
      </cc:Work>
    </rdf:RDF>
  </metadata>
  <defs
     id="defs89" />
  <sodipodi:namedview
     inkscape:current-layer="Bold"
     inkscape:window-maximized="1"
     inkscape:window-y="-8"
     inkscape:window-x="-8"
     inkscape:cy="256"
     inkscape:cx="256"
     inkscape:zoom="1.6445312"
     showgrid="false"
     id="namedview87"
     inkscape:window-height="1009"
     inkscape:window-width="1920"
     inkscape:pageshadow="2"
     inkscape:pageopacity="0"
     guidetolerance="10"
     gridtolerance="10"
     objecttolerance="10"
     borderopacity="1"
     bordercolor="#666666"
     pagecolor="#ffffff" />
  <path
     id="path84"
     d="m9.417 15.181-.397 5.584c.568 0 .814-.244 1.109-.537l2.663-2.545 5.518 4.041c1.012.564 1.725.267 1.998-.931l3.622-16.972.001-.001c.321-1.496-.541-2.081-1.527-1.714l-21.29 8.151c-1.453.564-1.431 1.374-.247 1.741l5.443 1.693 12.643-7.911c.595-.394 1.136-.176.691.218z" />
  <path
     transform="scale(0.046875)"
     id="path93"
     d="m 404.6349,468.54377 c -4.84404,-1.03369 -12.45622,-4.39861 -16.21196,-7.16639 -26.16839,-19.28475 -114.87776,-84.09217 -115.27013,-84.21163 -0.28656,-0.0872 -14.40972,13.11263 -31.3848,29.33306 -16.97508,16.22043 -32.3679,30.51351 -34.20624,31.76241 -3.80042,2.58183 -8.33511,4.11408 -12.1757,4.11408 -1.44429,0 -2.62464,-0.0684 -2.62301,-0.15202 0.002,-0.0836 1.90315,-26.67536 4.22561,-59.09277 l 4.22264,-58.94076 1.70313,-1.63159 c 0.93672,-0.89736 33.99197,-30.59664 73.45611,-65.99838 100.10138,-89.79706 142.79236,-128.12098 143.53082,-128.8484 2.79127,-2.74952 3.48082,-6.12354 1.59944,-7.82616 -1.53994,-1.39363 -7.74739,-1.33587 -11.49904,0.107 -1.59218,0.61235 -63.36804,38.9661 -137.27968,85.23054 -73.91164,46.26444 -135.26083,84.63868 -136.33153,85.27607 l -1.94673,1.15891 -57.948756,-18.00416 C 44.623259,263.75129 16.767696,254.9604 14.593824,254.11828 9.1358179,252.00393 4.3647382,248.61191 2.3251468,245.39581 -2.3694313,237.99323 2.2131061,230.14531 15.288054,223.19592 22.471886,219.37768 479.94555,44.302664 485.07119,43.410074 c 12.88598,-2.243997 23.08394,4.752497 25.77064,17.680423 0.40663,1.95659 0.56733,6.207771 0.39077,10.337293 -0.27276,6.379536 -3.85329,23.641503 -39.58184,190.82693 -21.60506,101.0971 -39.94255,185.71252 -40.74998,188.03427 -4.02138,11.56348 -10.83516,17.9138 -19.87096,18.51938 -2.15761,0.1446 -5.03533,0.0255 -6.39492,-0.2646 z"
     style="fill:#ffffff;stroke-width:0.608076" />
</svg>
