<?xml version="1.0" encoding="UTF-8" standalone="no"?>
<svg
   xmlns:dc="http://purl.org/dc/elements/1.1/"
   xmlns:cc="http://creativecommons.org/ns#"
   xmlns:rdf="http://www.w3.org/1999/02/22-rdf-syntax-ns#"
   xmlns:svg="http://www.w3.org/2000/svg"
   xmlns="http://www.w3.org/2000/svg"
   xmlns:sodipodi="http://sodipodi.sourceforge.net/DTD/sodipodi-0.dtd"
   xmlns:inkscape="http://www.inkscape.org/namespaces/inkscape"
   inkscape:version="1.0 (4035a4fb49, 2020-05-01)"
   sodipodi:docname="whatsapp.svg"
   id="svg163"
   version="1.1"
   width="682pt"
   viewBox="-23 -21 682 682.66669"
   height="682pt">
  <metadata
     id="metadata169">
    <rdf:RDF>
      <cc:Work
         rdf:about="">
        <dc:format>image/svg+xml</dc:format>
        <dc:type
           rdf:resource="http://purl.org/dc/dcmitype/StillImage" />
      </cc:Work>
    </rdf:RDF>
  </metadata>
  <defs
     id="defs167" />
  <sodipodi:namedview
     inkscape:current-layer="svg163"
     inkscape:window-maximized="1"
     inkscape:window-y="-8"
     inkscape:window-x="-8"
     inkscape:cy="454.66667"
     inkscape:cx="454.66667"
     inkscape:zoom="0.92595308"
     showgrid="false"
     id="namedview165"
     inkscape:window-height="1009"
     inkscape:window-width="1920"
     inkscape:pageshadow="2"
     inkscape:pageopacity="0"
     guidetolerance="10"
     gridtolerance="10"
     objecttolerance="10"
     borderopacity="1"
     bordercolor="#666666"
     pagecolor="#ffffff" />
  <path
     id="path161"
     fill-rule="evenodd"
     d="m544.386719 93.007812c-59.875-59.945312-139.503907-92.9726558-224.335938-93.007812-174.804687 0-317.070312 142.261719-317.140625 317.113281-.023437 55.894531 14.578125 110.457031 42.332032 158.550781l-44.992188 164.335938 168.121094-44.101562c46.324218 25.269531 98.476562 38.585937 151.550781 38.601562h.132813c174.785156 0 317.066406-142.273438 317.132812-317.132812.035156-84.742188-32.921875-164.417969-92.800781-224.359376zm-224.335938 487.933594h-.109375c-47.296875-.019531-93.683594-12.730468-134.160156-36.742187l-9.621094-5.714844-99.765625 26.171875 26.628907-97.269531-6.269532-9.972657c-26.386718-41.96875-40.320312-90.476562-40.296875-140.28125.054688-145.332031 118.304688-263.570312 263.699219-263.570312 70.40625.023438 136.589844 27.476562 186.355469 77.300781s77.15625 116.050781 77.132812 186.484375c-.0625 145.34375-118.304687 263.59375-263.59375 263.59375zm144.585938-197.417968c-7.921875-3.96875-46.882813-23.132813-54.148438-25.78125-7.257812-2.644532-12.546875-3.960938-17.824219 3.96875-5.285156 7.929687-20.46875 25.78125-25.09375 31.066406-4.625 5.289062-9.242187 5.953125-17.167968 1.984375-7.925782-3.964844-33.457032-12.335938-63.726563-39.332031-23.554687-21.011719-39.457031-46.960938-44.082031-54.890626-4.617188-7.9375-.039062-11.8125 3.476562-16.171874 8.578126-10.652344 17.167969-21.820313 19.808594-27.105469 2.644532-5.289063 1.320313-9.917969-.664062-13.882813-1.976563-3.964844-17.824219-42.96875-24.425782-58.839844-6.4375-15.445312-12.964843-13.359374-17.832031-13.601562-4.617187-.230469-9.902343-.277344-15.1875-.277344-5.28125 0-13.867187 1.980469-21.132812 9.917969-7.261719 7.933594-27.730469 27.101563-27.730469 66.105469s28.394531 76.683594 32.355469 81.972656c3.960937 5.289062 55.878906 85.328125 135.367187 119.648438 18.90625 8.171874 33.664063 13.042968 45.175782 16.695312 18.984374 6.03125 36.253906 5.179688 49.910156 3.140625 15.226562-2.277344 46.878906-19.171875 53.488281-37.679687 6.601563-18.511719 6.601563-34.375 4.617187-37.683594-1.976562-3.304688-7.261718-5.285156-15.183593-9.253906zm0 0" />
  <path
     transform="matrix(0.75073318,0,0,0.75073318,-23.333345,-21)"
     id="path171"
     d="m 32.780303,877.85087 c 0.326965,-1.09811 13.747266,-50.08745 29.822892,-108.86521 L 91.831603,662.11699 80.542293,639.38946 C 56.793456,591.57851 43.907468,547.82224 37.592032,493.54553 35.754691,477.75488 35.768189,422.76535 37.613239,407.14806 49.59612,305.71984 91.765745,218.88873 162.72439,149.53277 c 33.67724,-32.9166 66.35512,-56.263342 107.26769,-76.637478 44.75232,-22.286305 87.50108,-35.041328 139.8559,-41.729053 18.9588,-2.421768 71.01536,-2.751948 90.71734,-0.575395 18.32082,2.023972 40.6653,5.989736 58.47829,10.378899 150.30394,37.03524 269.97055,156.408317 307.53443,306.780057 9.16058,36.6707 11.91007,60.15794 11.94709,102.05701 0.0296,33.48354 -0.61275,42.46377 -4.94385,69.11797 -16.60215,102.17224 -71.77471,196.01496 -153.78239,261.56768 -64.45455,51.52165 -142.70259,82.88901 -225.71338,90.48191 -16.58707,1.51719 -56.68496,1.52706 -73.43785,0.018 -51.81917,-4.66753 -104.09678,-19.45285 -150.67973,-42.61572 l -14.60373,-7.2615 -109.59262,28.73949 C 85.495624,865.6614 35.280487,878.87615 34.18238,879.2208 c -1.559422,0.48943 -1.8664,0.18949 -1.402077,-1.36993 z M 490.46119,800.75948 c 84.08443,-8.39785 160.52222,-45.09023 218.70619,-104.98538 54.05665,-55.64644 85.58171,-120.86939 97.22381,-201.14861 2.69849,-18.60764 2.677,-68.90128 -0.0378,-88.5574 C 795.62997,328.42778 763.85008,262.00181 711.083,206.9351 627.51496,119.72511 507.05863,82.15752 387.23069,105.93292 357.1345,111.90439 329.80052,121.4169 300.2312,136.20966 198.71244,186.99681 128.52763,282.38946 110.24942,394.426 c -3.40902,20.89568 -4.77935,43.04648 -4.09416,66.18049 1.86595,62.99983 18.42646,118.97039 51.41142,173.75836 l 10.00782,16.62296 -17.55393,64.09994 c -9.65467,35.25496 -17.25841,64.39544 -16.89723,64.75662 0.36119,0.3612 29.67963,-6.9624 65.1521,-16.27464 35.47245,-9.31226 65.26969,-16.98567 66.21606,-17.05204 0.94639,-0.0664 6.92797,2.89041 13.29241,6.57062 44.03037,25.46035 90.59834,41.29048 136.92393,46.54535 5.64283,0.64009 11.71765,1.33376 13.4996,1.54149 7.71863,0.89982 52.04572,0.60385 62.25375,-0.41567 z"
     style="fill:#ffffff;stroke-width:1.07997" />
  <path
     transform="matrix(0.75073318,0,0,0.75073318,-23.333345,-21)"
     id="path173"
     d="m 544.49961,651.11431 c -14.98442,-2.51299 -54.39921,-16.15906 -82.27317,-28.48437 -41.06138,-18.15651 -86.88663,-52.6025 -125.03363,-93.98544 -23.08205,-25.04006 -51.19162,-61.67999 -65.58779,-85.49157 -31.14174,-51.50917 -36.48327,-99.29865 -15.73323,-140.7618 9.48657,-18.95626 25.47057,-37.13319 37.8796,-43.0765 l 7.01979,-3.36214 17.49384,0.21349 c 27.19299,0.33185 24.67854,-2.38981 46.19815,50.00504 6.95286,16.9285 14.83711,35.8541 17.52054,42.05687 4.03439,9.32557 4.78727,12.09108 4.34936,15.97623 -0.63196,5.60678 -5.98434,14.00782 -21.85552,34.30419 -12.4855,15.96673 -13.48784,17.58784 -13.48784,21.81436 0,3.87359 2.50496,8.60481 12.73373,24.05069 32.54913,49.15057 72.48001,82.9028 125.94744,106.45913 20.45188,9.01055 23.37246,8.94146 32.63176,-0.77199 5.59302,-5.86735 23.71156,-28.02837 29.65357,-36.26965 9.05295,-12.55601 13.44689,-13.7015 28.52677,-7.43686 17.33039,7.19959 84.11412,40.19248 87.23132,43.09454 l 3.20581,2.98455 -0.53215,13.21498 c -0.58316,14.48223 -4.09811,30.18358 -8.86116,39.58301 -7.84811,15.4875 -35.23184,35.52498 -58.90447,43.10213 -14.35996,4.59634 -39.98714,5.82257 -58.12272,2.78111 z"
     style="fill:#ffffff;stroke-width:1.07997" />
</svg>
